<?xml version="1.0" encoding="UTF-8" standalone="no"?>
<svg width="139px" height="47px" viewBox="0 0 139 47" version="1.1" xmlns="http://www.w3.org/2000/svg" xmlns:xlink="http://www.w3.org/1999/xlink" xmlns:sketch="http://www.bohemiancoding.com/sketch/ns">
    <!-- Generator: sketchtool 3.5.2 (25235) - http://www.bohemiancoding.com/sketch -->
    <title>prizmlogo</title>
    <desc>Created with sketchtool.</desc>
    <defs></defs>
    <g id="Page-1" stroke="none" stroke-width="1" fill="none" fill-rule="evenodd" sketch:type="MSPage">
        <g id="Desktop-HD-1200-Revised" sketch:type="MSArtboardGroup" transform="translate(-30.000000, -13.000000)" fill="#324B8F">
            <g id="Nav" sketch:type="MSLayerGroup">
                <path d="M53.566,24.814 L41.941,30.525 L53.557,36.713 L65.194,30.629 L53.566,24.814 Z M66.398,31.252 L66.398,31.252 L53.967,38.178 C53.965,38.179 53.963,38.179 53.961,38.18 L53.959,38.181 C53.843,38.243 53.71,38.278 53.569,38.278 C53.427,38.278 53.294,38.243 53.178,38.181 L53.176,38.18 C53.174,38.179 53.172,38.179 53.171,38.178 L40.704,31.252 C40.443,31.113 40.265,30.839 40.265,30.524 C40.265,30.209 40.443,29.936 40.704,29.797 L53.153,23.327 C53.155,23.326 53.157,23.325 53.159,23.324 L53.161,23.323 C53.277,23.261 53.41,23.226 53.551,23.226 C53.693,23.226 53.826,23.261 53.942,23.323 L53.944,23.324 C53.946,23.325 53.947,23.326 53.949,23.327 L66.398,29.797 C66.66,29.936 66.838,30.209 66.838,30.524 C66.838,30.839 66.66,31.113 66.398,31.252 L66.398,31.252 Z M66.398,37.022 L53.984,43.646 C53.982,43.647 53.98,43.648 53.979,43.649 L53.977,43.65 C53.86,43.712 53.727,43.747 53.586,43.747 C53.495,43.747 53.407,43.732 53.325,43.705 L41.486,37.422 L41.48,37.432 L40.704,37.022 C40.443,36.883 40.265,36.609 40.265,36.294 C40.265,35.979 40.443,35.706 40.704,35.567 L43.028,34.337 L44.238,34.951 L41.96,36.264 L53.557,42.162 L65.138,36.313 L62.781,34.818 L64.097,34.349 L66.398,35.567 C66.66,35.706 66.838,35.979 66.838,36.294 C66.838,36.609 66.66,36.883 66.398,37.022 L66.398,37.022 Z M53.984,49.666 C53.982,49.667 53.98,49.668 53.979,49.669 L53.977,49.669 C53.86,49.731 53.727,49.766 53.586,49.766 C53.445,49.766 53.312,49.731 53.195,49.669 L53.193,49.669 C53.191,49.668 53.19,49.667 53.188,49.666 L40.704,42.792 C40.443,42.653 40.265,42.379 40.265,42.064 C40.265,41.749 40.443,41.476 40.704,41.337 L43.028,40.107 L44.609,40.548 L41.954,42.01 L53.567,48.179 L65.149,42.086 L62.742,40.64 L64.094,40.117 L66.398,41.337 C66.66,41.476 66.838,41.749 66.838,42.064 C66.838,42.379 66.66,42.653 66.398,42.792 L53.984,49.666 Z M53.55,14.488 C40.977,14.488 31.492,23.929 31.492,36.492 C31.492,49.054 40.977,58.426 53.55,58.426 C66.124,58.426 75.504,49.054 75.504,36.492 C75.504,23.929 66.124,14.488 53.55,14.488 L53.55,14.488 Z M53.55,59.988 C40.352,59.988 30,49.68 30,36.494 C30,23.308 40.352,13 53.55,13 C66.748,13 77.03,23.308 77.03,36.494 C77.03,49.68 66.748,59.988 53.55,59.988 L53.55,59.988 Z M102.368,26.877 C101.213,25.718 99.57,25.98 97.878,25.98 L89.007,25.98 L89.007,34.99 L97.878,34.99 C99.57,34.99 101.132,35.196 102.182,34.334 C103.231,33.473 103.835,32.277 103.835,30.506 C103.835,28.736 103.327,27.839 102.368,26.877 L102.368,26.877 Z M103.777,35.351 C103.109,35.985 102.456,36.374 101.526,36.697 C100.596,37.021 99.559,36.988 98.414,36.988 L89.007,36.988 L89.007,48.985 L87.011,48.985 L87.011,23.986 L98.414,23.986 C99.559,23.986 100.596,24.147 101.526,24.47 C102.456,24.793 103.109,24.913 103.777,25.547 C104.444,26.181 104.957,26.792 105.315,27.701 C105.672,28.61 106.007,29.136 106.007,30.285 C106.007,31.433 105.672,32.373 105.315,33.283 C104.957,34.192 104.444,34.717 103.777,35.351 L103.777,35.351 Z M114.978,32.427 C114.143,32.75 113.422,33.052 112.814,33.65 C112.206,34.248 111.833,34.96 111.499,35.785 C111.165,36.611 110.998,37.514 110.998,38.495 L110.998,48.993 L109.01,48.993 L109.01,29.993 L111,29.993 L111,34.188 L111.071,34.188 C111.644,32.681 112.149,31.68 113.353,30.866 C114.557,30.053 116.837,29.943 118.507,30.015 L118.507,31.723 C117.481,31.676 115.812,32.104 114.978,32.427 L114.978,32.427 Z M122.997,48.985 L120.996,48.985 L120.996,30 L122.997,30 L122.997,48.985 Z M121,24.027 L123.004,24.027 L123.004,28.013 L121,28.013 L121,24.027 Z M124.989,46.783 L138.112,31.999 L126.005,31.999 L126.005,29.996 L140.993,29.996 L140.993,31.872 L127.822,46.995 L142.003,46.995 L142.003,48.985 L124.989,48.985 L124.989,46.783 Z M166.986,49 L166.986,36.421 C166.986,34.89 166.63,33.724 165.986,32.922 C165.342,32.12 163.875,31.72 162.254,31.72 C161.276,31.72 160.309,31.905 159.666,32.276 C159.022,32.647 158.58,33.143 158.199,33.765 C157.818,34.388 157.375,35.099 157.22,35.901 C157.065,36.703 156.988,37.534 156.988,38.395 L156.988,49 L155.001,49 L155.001,36.314 C155.001,35.692 154.935,35.099 154.804,34.537 C154.673,33.975 154.498,33.484 154.2,33.065 C153.902,32.647 153.503,32.318 153.002,32.078 C152.501,31.839 151.893,31.72 151.178,31.72 C150.224,31.72 149.834,31.893 149.131,32.24 C148.427,32.587 147.855,33.065 147.414,33.676 C146.973,34.286 146.521,35.004 146.307,35.829 C146.092,36.654 145.998,37.558 145.998,38.539 L145.998,49 L144.007,49 L144.007,30.015 L146.001,30.015 L146.001,33.478 L146.109,33.478 C146.704,32.33 147.414,31.679 148.38,31.033 C149.346,30.387 150.344,30.064 151.846,30.064 C153.062,30.064 154.164,30.363 155.154,30.961 C156.143,31.559 156.506,32.222 156.84,33.442 C157.389,32.222 158.092,31.559 159.165,30.961 C160.238,30.363 161.539,30.064 162.755,30.064 C166.832,30.064 168.993,31.983 168.993,36.314 L168.993,49 L166.986,49 Z" id="prizmlogo" sketch:type="MSShapeGroup"></path>
            </g>
        </g>
    </g>
</svg>